<svg xmlns="http://www.w3.org/2000/svg" viewBox="0 0 32 32" role="img" aria-label="Ghidra-ReAGS">
  <rect width="32" height="32" rx="7" fill="#0d1117"/>
  <rect x="1" y="1" width="30" height="30" rx="6" fill="none" stroke="#30363d" stroke-width="1"/>
  <!-- Minimal dragon head (Ghidra nod) -->
  <path fill="#e3b341" d="M6 22 L6 14 Q6 8 12 7 L20 6 Q26 6 27 11 L27 16 Q27 21 22 22 L16 23 Q10 24 6 22 Z"/>
  <path fill="#0d1117" d="M20 11 Q23 10 24 13 Q24 16 21 16 Q18 16 18 13 Q18 11 20 11 Z"/>
  <circle cx="21" cy="13.5" r="1.1" fill="#58a6ff"/>
  <!-- Script bracket hint -->
  <path fill="none" stroke="#58a6ff" stroke-width="1.6" stroke-linecap="round" d="M9 12 V20 M9 16 H7"/>
</svg>
